%
M48
M72
T01C0.02400
T02C0.03200
T03C0.03600
T04C0.04000
%
T01
X21600Y56600
X26600Y61600
X26600Y96600
X36600Y106600
X41600Y121600
X56600Y101600
X91600Y86600
T02
X76600Y56600
X66600Y56600
X56600Y56600
X56600Y36600
X56600Y16600
X66600Y16600
X66600Y36600
X76600Y36600
X76600Y16600
X36600Y16600
X36600Y36600
X36600Y56600
X36600Y76600
X36600Y96600
T03
X53800Y91600
X79400Y91600
T04
X11600Y21600
X11600Y31600
X11600Y41600
X11600Y51600
X11600Y61600
X11600Y71600
X11600Y81600
X11600Y91600
X11600Y136600
X11600Y146600
X11600Y156600
X11600Y166600
X11600Y176600
X11600Y186600
X11600Y196600
X11600Y206600
X101600Y206600
X101600Y196600
X101600Y186600
X101600Y176600
X101600Y166600
X101600Y156600
X101600Y146600
X101600Y136600
X101600Y91600
X101600Y81600
X101600Y71600
X101600Y61600
X101600Y51600
X101600Y41600
X101600Y31600
X101600Y21600
M30
