G75*
%MOIN*%
%OFA0B0*%
%FSLAX25Y25*%
%IPPOS*%
%LPD*%
%AMOC8*
5,1,8,0,0,1.08239X$1,22.5*
%
%ADD10R,0.06800X0.06800*%
%ADD11C,0.07400*%
%ADD12R,0.07400X0.07400*%
%ADD13OC8,0.06000*%
%ADD14OC8,0.09300*%
%ADD15C,0.04800*%
D10*
X0011600Y0091600D03*
X0011600Y0206600D03*
D11*
X0011600Y0021600D03*
X0011600Y0031600D03*
X0011600Y0041600D03*
X0011600Y0051600D03*
X0011600Y0061600D03*
X0011600Y0071600D03*
X0011600Y0081600D03*
X0011600Y0136600D03*
X0011600Y0146600D03*
X0011600Y0156600D03*
X0011600Y0166600D03*
X0011600Y0176600D03*
X0011600Y0186600D03*
X0011600Y0196600D03*
X0101600Y0196600D03*
X0101600Y0186600D03*
X0101600Y0176600D03*
X0101600Y0166600D03*
X0101600Y0156600D03*
X0101600Y0146600D03*
X0101600Y0136600D03*
X0101600Y0081600D03*
X0101600Y0071600D03*
X0101600Y0061600D03*
X0101600Y0051600D03*
X0101600Y0041600D03*
X0101600Y0031600D03*
X0101600Y0021600D03*
D12*
X0101600Y0091600D03*
X0101600Y0206600D03*
D13*
X0036600Y0096600D03*
X0036600Y0076600D03*
X0036600Y0056600D03*
X0036600Y0036600D03*
X0036600Y0016600D03*
X0056600Y0016600D03*
X0056600Y0036600D03*
X0066600Y0036600D03*
X0066600Y0016600D03*
X0076600Y0016600D03*
X0076600Y0036600D03*
X0076600Y0056600D03*
X0066600Y0056600D03*
X0056600Y0056600D03*
D14*
X0053800Y0091600D03*
X0079400Y0091600D03*
D15*
X0091600Y0086600D03*
X0056600Y0101600D03*
X0041600Y0121600D03*
X0036600Y0106600D03*
X0026600Y0096600D03*
X0026600Y0061600D03*
X0021600Y0056600D03*
M02*
